<svg xmlns="http://www.w3.org/2000/svg" fill="none" viewBox="0 0 24 24"><path stroke="currentColor" stroke-linecap="round" stroke-linejoin="round" stroke-width="2" d="M2.5 9h19M10 3 8 9l4 11.5L16 9l-2-6m-1.4 17.26 8.96-10.75c.15-.18.23-.27.26-.37a.5.5 0 0 0 0-.28c-.03-.1-.1-.19-.26-.37l-4.33-5.2q-.12-.15-.19-.2l-.15-.07q-.09-.03-.28-.02H7.37q-.18 0-.27.02l-.15.07-.19.2-4.33 5.2c-.16.18-.23.27-.26.37a.5.5 0 0 0 0 .28c.03.1.1.19.26.37l8.96 10.75c.2.26.31.38.44.43a.5.5 0 0 0 .34 0c.13-.05.23-.17.44-.43"/></svg>