<svg xmlns="http://www.w3.org/2000/svg" fill="none" viewBox="0 0 24 24"><path stroke="currentColor" stroke-linecap="round" stroke-linejoin="round" stroke-width="2" d="M12.98 2.76a2 2 0 0 0-.72-.46 1 1 0 0 0-.52 0c-.2.05-.37.2-.72.46L4.24 8.04c-.46.35-.68.53-.85.75a2 2 0 0 0-.32.65C3 9.7 3 9.99 3 10.57v7.23c0 1.12 0 1.68.22 2.1q.3.58.87.88c.43.22.99.22 2.11.22h2c.28 0 .42 0 .53-.05a.5.5 0 0 0 .22-.22c.05-.11.05-.25.05-.53v-6.6c0-.56 0-.84.1-1.05a1 1 0 0 1 .45-.44c.21-.11.49-.11 1.05-.11h2.8c.56 0 .84 0 1.05.1a1 1 0 0 1 .44.45c.11.21.11.49.11 1.05v6.6c0 .28 0 .42.05.53q.08.15.22.22c.11.05.25.05.53.05h2c1.12 0 1.68 0 2.1-.22a2 2 0 0 0 .88-.87c.22-.43.22-.99.22-2.11v-7.23c0-.58 0-.87-.07-1.13a2 2 0 0 0-.32-.65c-.17-.22-.4-.4-.85-.75z"/></svg>