<svg xmlns="http://www.w3.org/2000/svg" fill="none" viewBox="0 0 24 24"><path stroke="currentColor" stroke-linecap="round" stroke-linejoin="round" stroke-width="2" d="M1 20c0-1.396 0-2.093.172-2.661a4 4 0 0 1 2.667-2.667C4.407 14.5 5.104 14.5 6.5 14.5H10m10.491-4.928 2.239.828c.083.03.125.046.137.069q.015.032 0 .062c-.012.023-.054.038-.137.069l-2.239.828a.1.1 0 0 0-.032.015l-.016.016q-.006.009-.015.032L19.6 13.73c-.03.083-.046.125-.069.137a.07.07 0 0 1-.062 0c-.023-.012-.038-.054-.069-.137l-.828-2.239a.1.1 0 0 0-.015-.032l-.016-.016a.1.1 0 0 0-.032-.015L16.27 10.6c-.083-.03-.125-.046-.137-.069a.07.07 0 0 1 0-.062c.012-.023.054-.038.137-.07l2.239-.827q.023-.009.032-.015l.016-.016a.1.1 0 0 0 .015-.032L19.4 7.27c.03-.083.046-.125.069-.137q.032-.015.062 0c.023.012.038.054.069.137l.828 2.239q.009.024.015.032.007.01.016.016t.032.015m-5.015 7.445 2.969 1.098c.083.031.125.047.137.07q.015.03 0 .062c-.012.022-.054.037-.137.068l-2.969 1.099-.032.014-.016.016q-.007.009-.015.033l-1.098 2.968c-.031.083-.046.125-.069.137a.07.07 0 0 1-.062 0c-.023-.012-.038-.054-.07-.137l-1.098-2.968q-.008-.024-.014-.033l-.016-.016-.033-.014-2.968-1.099c-.083-.03-.125-.046-.137-.069a.07.07 0 0 1 0-.062c.012-.022.054-.038.137-.069l2.969-1.098.032-.014.016-.017a.1.1 0 0 0 .014-.032l1.099-2.968c.03-.084.046-.126.069-.138q.032-.015.062 0c.023.012.038.054.069.138l1.098 2.968q.008.023.015.032t.016.017.032.014M13.5 6.5a4.5 4.5 0 1 1-9 0 4.5 4.5 0 0 1 9 0"/></svg>