<svg xmlns="http://www.w3.org/2000/svg" fill="none" viewBox="0 0 24 24"><path stroke="currentColor" stroke-linecap="round" stroke-linejoin="round" stroke-width="2" d="M3 16V7.2c0-1.12 0-1.68.22-2.1a2 2 0 0 1 .87-.88C4.52 4 5.08 4 6.2 4h11.6c1.12 0 1.68 0 2.1.22q.58.3.88.87c.22.43.22.99.22 2.11V16h-5.34c-.24 0-.36 0-.48.03a1 1 0 0 0-.29.12c-.1.06-.19.15-.36.32l-.06.06c-.17.17-.26.26-.36.32a1 1 0 0 1-.3.12c-.1.03-.23.03-.47.03h-2.68c-.24 0-.36 0-.48-.03a1 1 0 0 1-.29-.12c-.1-.06-.19-.15-.36-.32l-.06-.06a2 2 0 0 0-.36-.32 1 1 0 0 0-.3-.12q-.13-.04-.47-.03zm0 0a1 1 0 0 0-1 1v.33c0 .62 0 .93.07 1.19a2 2 0 0 0 1.41 1.41c.26.07.57.07 1.19.07h14.66c.62 0 .93 0 1.19-.07a2 2 0 0 0 1.41-1.41c.07-.26.07-.57.07-1.19 0-.3 0-.46-.03-.59a1 1 0 0 0-.71-.7c-.13-.04-.28-.04-.6-.04H20"/></svg>