<svg xmlns="http://www.w3.org/2000/svg" fill="none" viewBox="0 0 24 24"><path stroke="currentColor" stroke-linecap="round" stroke-linejoin="round" stroke-width="2" d="M19 4.5c0 .46 0 .7-.04.89a2 2 0 0 1-1.57 1.57c-.2.04-.43.04-.89.04h-11c-.46 0-.7 0-.89-.04A2 2 0 0 1 3.04 5.4C3 5.19 3 4.96 3 4.5s0-.7.04-.89A2 2 0 0 1 4.6 2.04C4.81 2 5.04 2 5.5 2h11c.46 0 .7 0 .89.04a2 2 0 0 1 1.57 1.57c.04.2.04.43.04.89m0 0c.93 0 1.4 0 1.77.15a2 2 0 0 1 1.08 1.08c.15.37.15.84.15 1.77v.3c0 1.12 0 1.68-.22 2.1a2 2 0 0 1-.87.88c-.43.22-.99.22-2.11.22h-3.6c-1.12 0-1.68 0-2.1.22a2 2 0 0 0-.88.87c-.22.43-.22.99-.22 2.11v.8m-.4 7h.8c.56 0 .84 0 1.05-.1a1 1 0 0 0 .44-.45c.11-.21.11-.49.11-1.05v-3.8c0-.56 0-.84-.1-1.05a1 1 0 0 0-.45-.44c-.21-.11-.49-.11-1.05-.11h-.8c-.56 0-.84 0-1.05.1a1 1 0 0 0-.44.45c-.11.21-.11.49-.11 1.05v3.8c0 .56 0 .84.1 1.05a1 1 0 0 0 .45.44c.21.11.49.11 1.05.11"/></svg>