<svg xmlns="http://www.w3.org/2000/svg" fill="none" viewBox="0 0 24 24"><path fill="currentColor" d="m11.885 4.769-.895.447zm.22 2.678a1 1 0 1 0 1.79-.894L13 7zM10.417 3.11l.326-.945zm.747.462.7-.714zm-8.071-.353-.454-.891zm-.874.874-.891-.454zm1.42 16.581-.454.891zm-1.311-1.311-.891.454zm19.346 0 .891.454zm-1.311 1.311.454.891zm0-13.346.454-.891zm1.311 1.311.891-.454zM17 10a1 1 0 1 0 0-2zm-1-2a1 1 0 1 0 0 2zm3 4a1 1 0 1 0 0-2zm-1-2a1 1 0 1 0 0 2zM5.2 3v1h3.822V2H5.2zm6.684 1.769-.894.447 1.116 2.231L13 7l.894-.447-1.115-2.231zM2 7h1v-.8H1V7zm7.022-4v1c.79 0 .947.013 1.068.055l.326-.946.326-.945C10.23 1.987 9.668 2 9.022 2zm2.862 1.769.895-.447c-.289-.578-.528-1.085-.916-1.465l-.7.714-.7.715c.092.089.174.223.527.93zm-1.468-1.66-.326.946a1 1 0 0 1 .374.23l.7-.714.7-.714a3 3 0 0 0-1.122-.693zM5.2 3V2c-.544 0-1.011 0-1.395.03-.395.033-.789.104-1.167.297l.454.891.454.891c.05-.025.15-.063.422-.085C4.25 4 4.623 4 5.2 4zM2 6.2h1c0-.577 0-.949.024-1.232.022-.272.06-.373.085-.422l-.891-.454-.891-.454c-.193.378-.264.772-.296 1.167C.999 5.189 1 5.656 1 6.2zm1.092-2.982-.454-.891a3 3 0 0 0-1.311 1.311l.891.454.891.454a1 1 0 0 1 .437-.437zM2 7v1h15.2V6H2zm20 4.8h-1v4.4h2v-4.4zM17.2 21v-1H6.8v2h10.4zM2 16.2h1V7H1v9.2zM6.8 21v-1c-.857 0-1.439 0-1.889-.038-.438-.035-.663-.1-.819-.18l-.454.891-.454.891c.485.247 1.002.346 1.564.392C5.298 22 5.976 22 6.8 22zM2 16.2H1c0 .824 0 1.501.044 2.052.046.562.145 1.079.392 1.564l.891-.454.891-.454c-.08-.156-.145-.38-.18-.819C3 17.639 3 17.057 3 16.2zm1.638 4.473.454-.891a2 2 0 0 1-.874-.874l-.891.454-.891.454a4 4 0 0 0 1.748 1.748zM22 16.2h-1c0 .857 0 1.439-.038 1.889-.035.438-.1.663-.18.819l.891.454.891.454c.247-.485.346-1.002.392-1.564.045-.55.044-1.228.044-2.052zM17.2 21v1c.824 0 1.501 0 2.052-.044.562-.046 1.079-.145 1.564-.392l-.454-.891-.454-.891c-.156.08-.38.145-.819.18-.45.037-1.032.038-1.889.038zm4.473-1.638-.891-.454a2 2 0 0 1-.874.874l.454.891.454.891a4 4 0 0 0 1.748-1.748zM17.2 7v1c.857 0 1.439 0 1.889.038.438.035.663.1.819.18l.454-.891.454-.891c-.485-.247-1.002-.346-1.564-.392C18.702 6 18.024 6 17.2 6zm4.8 4.8h1c0-.824 0-1.501-.044-2.052-.046-.562-.145-1.079-.392-1.564l-.891.454-.891.454c.08.156.145.38.18.819.037.45.038 1.032.038 1.889zm-1.638-4.473-.454.891a2 2 0 0 1 .874.874l.891-.454.891-.454a4 4 0 0 0-1.748-1.748zM17 13v1a1 1 0 0 1 .707.293l.707-.707.707-.707A3 3 0 0 0 17 12zm1.414.586-.707.707A1 1 0 0 1 18 15h2a3 3 0 0 0-.879-2.121zM19 15h-1v2h2v-2zm0 2h-1l.707.707.707.707A2 2 0 0 0 20 17zm-.293.707L18 17v2a2 2 0 0 0 1.414-.586zM18 18v-1h-2v2h2zm-2 0v-1l-.707.707-.707.707A2 2 0 0 0 16 19zm-.707-.293L16 17h-2a2 2 0 0 0 .586 1.414zM15 17h1v-2h-2v2zm0-2h1a1 1 0 0 1 .293-.707l-.707-.707-.707-.707A3 3 0 0 0 14 15zm.586-1.414.707.707A1 1 0 0 1 17 14v-2a3 3 0 0 0-2.121.879zM17 9V8h-1v2h1zm2 2v-1h-1v2h1z"/></svg>