<svg xmlns="http://www.w3.org/2000/svg" fill="none" viewBox="0 0 24 24"><path stroke="currentColor" stroke-linecap="round" stroke-linejoin="round" stroke-width="2" d="M2.42 12.71c-.14-.21-.2-.32-.24-.49a1 1 0 0 1 0-.44c.04-.17.1-.28.24-.5C3.55 9.5 6.9 5 12 5s8.46 4.5 9.58 6.29c.14.21.2.32.24.49.03.12.03.32 0 .44-.04.17-.1.28-.24.5C20.46 14.5 17.11 19 12 19c-5.1 0-8.45-4.5-9.58-6.29"/><path stroke="currentColor" stroke-linecap="round" stroke-linejoin="round" stroke-width="2" d="M12 15a3 3 0 1 0 0-6 3 3 0 0 0 0 6"/></svg>