<svg xmlns="http://www.w3.org/2000/svg" fill="none" viewBox="0 0 24 24"><path stroke="currentColor" stroke-linecap="round" stroke-linejoin="round" stroke-width="2" d="m4 8-.39-.04A2 2 0 0 1 2.04 6.4C2 6.19 2 5.96 2 5.5s0-.7.04-.89A2 2 0 0 1 3.6 3.04C3.81 3 4.04 3 4.5 3h15c.46 0 .7 0 .89.04a2 2 0 0 1 1.57 1.57c.04.2.04.43.04.89s0 .7-.04.89A2 2 0 0 1 20 7.99M10 13h4M4 8h16v8.2c0 1.68 0 2.52-.33 3.16a3 3 0 0 1-1.3 1.31c-.65.33-1.49.33-3.17.33H8.8c-1.68 0-2.52 0-3.16-.33a3 3 0 0 1-1.31-1.3C4 18.71 4 17.87 4 16.2z"/></svg>