<svg xmlns="http://www.w3.org/2000/svg" fill="none" viewBox="0 0 24 24"><path fill="currentColor" d="M18.7 14.3a1 1 0 0 0-1.4 1.4l.7-.7zM21 18l.7.7a1 1 0 0 0 0-1.4zm-3.7 2.3a1 1 0 0 0 1.4 1.4L18 21zm1.4-18a1 1 0 1 0-1.4 1.4L18 3zM21 6l.7.7a1 1 0 0 0 0-1.4zm-3.7 2.3a1 1 0 0 0 1.4 1.4L18 9zM3 5a1 1 0 0 0 0 2zm11.58 10.86-.84.56zm.59-.91a1 1 0 0 0-1.67 1.1l.83-.55zm-6.34-5.9a1 1 0 0 0 1.67-1.1l-.83.55zm.6-.91-.84.55zm7.3 9.73.3-.96zm-1.03-.55-.63.77zM7.27 6.12l.29-.95zm1.03.56-.64.77zM3 17a1 1 0 1 0 0 2zm6.42-1.14-.83-.55zm5.15-7.72.84.55zm-7.3 9.73-.3-.96zm1.03-.55.63.77zm8.43-11.2.3.97zm-1.03.56.64.77zM13.01 24a1 1 0 1 0 0-2zm-2-2a1 1 0 1 0 0 2zM18 15l-.7.7 3 3 .7-.7.7-.7-3-3zm3 3-.7-.7-3 3 .7.7.7.7 3-3zM18 3l-.7.7 3 3L21 6l.7-.7-3-3zm3 3-.7-.7-3 3 .7.7.7.7 3-3zM5.43 6V5H3v2h2.43zM21 18v-1h-2.43v2H21zm-6.43-2.14.84-.55-.24-.36-.84.55-.83.55.24.37zM9.67 8.5l.83-.55-.24-.37-.84.56-.83.55.24.36zm8.9 9.5v-1c-1 0-1.3-.01-1.55-.09l-.29.96-.29.96c.6.18 1.25.17 2.13.17zm-4-2.14-.83.56c.49.73.84 1.27 1.33 1.67l.63-.77.64-.77c-.2-.17-.38-.4-.93-1.24zm2.16 2.01.3-.96a2 2 0 0 1-.7-.36l-.63.77-.63.77a4 4 0 0 0 1.37.74zM5.43 6v1c1 0 1.3.01 1.55.09l.29-.96.29-.96C6.96 5 6.3 5 5.43 5zm4 2.14.83-.56c-.49-.73-.84-1.27-1.33-1.67l-.63.77-.64.77c.2.17.38.4.93 1.24zM7.26 6.13l-.3.96a2 2 0 0 1 .7.36l.63-.77.63-.77a4 4 0 0 0-1.37-.74zM18.57 6v1H21V5h-2.43zM3 18v1h2.43v-2H3zm6.42-2.14.84.56 5.15-7.73-.84-.55-.83-.56-5.15 7.73zM5.43 18v1c.88 0 1.52.01 2.13-.17l-.3-.96-.28-.96c-.26.08-.55.09-1.55.09zm4-2.14-.84-.55a6 6 0 0 1-.93 1.24l.64.77.63.77c.49-.4.84-.94 1.33-1.67zm-2.16 2.01.29.96a4 4 0 0 0 1.37-.74l-.63-.77-.64-.77a2 2 0 0 1-.68.36zM18.57 6V5c-.88 0-1.52-.01-2.13.17l.3.96.28.96A6 6 0 0 1 18.57 7zm-4 2.14.84.55c.55-.83.72-1.07.93-1.24l-.64-.77-.63-.77c-.49.4-.84.94-1.33 1.67zm2.16-2.01-.29-.96a4 4 0 0 0-1.37.74l.63.77.64.77a2 2 0 0 1 .68-.36zM13 23v1h.01zv-1zm0 0v-1h-2v2h2z"/></svg>