<svg xmlns="http://www.w3.org/2000/svg" fill="none" viewBox="0 0 24 24"><path stroke="currentColor" stroke-linecap="round" stroke-linejoin="round" stroke-width="2" d="M21.004 21.004h-10.59m-.79-11.518-5.927 5.015a1.987 1.987 0 1 0 2.755 2.852l5.236-5.766m3.422-4.289 2.2 1.756a1.836 1.836 0 0 1 .157 2.727l-1.677 1.685a1.814 1.814 0 0 1-2.701-.143l-1.777-2.207a9.2 9.2 0 0 0-1.42-1.417L7.69 7.943a1.836 1.836 0 0 1-.156-2.727l1.674-1.683a1.815 1.815 0 0 1 2.701.143l1.779 2.206c.42.523.897.998 1.422 1.416"/></svg>