<svg xmlns="http://www.w3.org/2000/svg" fill="none" viewBox="0 0 24 24"><path fill="currentColor" d="m6.08 10.02.1 1a1 1 0 0 0 .89-.84zM10 20a1 1 0 1 0 0-2zm6.17-11.76a1 1 0 1 0 1.66-1.11l-.83.55zm-.74 9.22.72-.7zm0 2.1-.73-.69zm-2.01 0 .72-.69zm0-2.1.72.69zm8.16-1 .73-.69zm0 2.11-.72-.69zm-2 0 .72-.69zm0-2.1.72.69zm-4.74 1.7a1 1 0 1 0 2 0zm1.6-6.7-.31-.96-.08.03zm4.26-1.4.31.95q.04 0 .08-.03zm.3 7.1a1 1 0 1 0 2 0zM2 14.5H1A5.5 5.5 0 0 0 6.5 20v-2A3.5 3.5 0 0 1 3 14.5zm4.08-4.48-.1-1A5.5 5.5 0 0 0 1 14.5h2a3.5 3.5 0 0 1 3.17-3.48zM12 5V4a7 7 0 0 0-6.9 5.86l.98.16.99.16A5 5 0 0 1 12 6zM6.5 19v1H10v-2H6.5zM17 7.68l.83-.55A7 7 0 0 0 12 4v2a5 5 0 0 1 4.17 2.24zm-1.57 9.78-.73.69c.19.2.19.53 0 .72l.73.7.72.68c.92-.96.92-2.51 0-3.48zm0 2.1-.73-.69a.4.4 0 0 1-.56 0l-.72.7-.73.68c.95 1 2.51 1 3.46 0zm-2.01 0 .72-.69a.54.54 0 0 1 0-.72l-.72-.7-.73-.68a2.54 2.54 0 0 0 0 3.48zm0-2.1.72.69c.16-.17.4-.17.56 0l.73-.7.72-.68c-.95-1-2.5-1-3.46 0zm8.16-1-.72.7c.19.2.19.53 0 .72l.72.7.73.68c.92-.97.92-2.52 0-3.49zm0 2.11-.72-.69a.4.4 0 0 1-.56 0l-.73.7-.72.68c.95 1 2.5 1 3.46 0zm-2 0 .72-.69a.54.54 0 0 1 0-.72l-.73-.7-.72-.69a2.54 2.54 0 0 0 0 3.5zm0-2.1.72.69c.16-.17.4-.17.56 0l.72-.7.73-.69a2.4 2.4 0 0 0-3.46 0zm-3.74 1.7h1v-5.79h-2v5.78zm0-5.79h1v-.01l-.02.02-.38-.93-.39-.92a2 2 0 0 0-1.2 1.84zm.6-.92.3.95 4.27-1.39-.3-.95-.32-.95-4.26 1.4zm4.26-1.39.39.92H21v-.01.01h2c0-1.34-1.34-2.4-2.69-1.84zM22 11h-1v6.18h2V11z"/></svg>