<svg xmlns="http://www.w3.org/2000/svg" fill="none" viewBox="0 0 24 24"><path stroke="currentColor" stroke-linecap="round" stroke-linejoin="round" stroke-width="2" d="M22 12.5H2m9 5H6m6-10H7.5a2.5 2.5 0 1 1 0-5c3.5 0 4.5 5 4.5 5m0 0h4.5a2.5 2.5 0 0 0 0-5c-3.5 0-4.5 5-4.5 5M2 10.7v7.6c0 1.12 0 1.68.22 2.1q.3.58.87.88c.43.22.99.22 2.11.22h13.6c1.12 0 1.68 0 2.1-.22a2 2 0 0 0 .88-.87c.22-.43.22-.99.22-2.11v-7.6c0-1.12 0-1.68-.22-2.1a2 2 0 0 0-.87-.88c-.43-.22-.99-.22-2.11-.22H5.2c-1.12 0-1.68 0-2.1.22a2 2 0 0 0-.88.87C2 9.02 2 9.58 2 10.7"/></svg>