<svg xmlns="http://www.w3.org/2000/svg" fill="none" viewBox="0 0 24 24"><path stroke="currentColor" stroke-linecap="round" stroke-linejoin="round" stroke-width="2" d="M16 9V6a4 4 0 0 0-8 0v3m-4.4 1.35-.6 6.4c-.18 1.82-.26 2.73.04 3.43a3 3 0 0 0 1.32 1.45c.67.37 1.58.37 3.41.37h8.46c1.83 0 2.74 0 3.41-.37a3 3 0 0 0 1.32-1.45c.3-.7.22-1.6.05-3.43l-.6-6.4c-.15-1.53-.22-2.3-.56-2.88a3 3 0 0 0-1.3-1.18C17.95 6 17.18 6 15.64 6H8.37c-1.54 0-2.31 0-2.92.29a3 3 0 0 0-1.3 1.18c-.34.58-.41 1.35-.56 2.88"/></svg>