<svg xmlns="http://www.w3.org/2000/svg" fill="none" viewBox="0 0 24 24"><path stroke="currentColor" stroke-linecap="round" stroke-linejoin="round" stroke-width="2" d="M5 9v8m4.5-8v8m5-8v8M19 9v8M3 18.6v.8c0 .56 0 .84.1 1.05a1 1 0 0 0 .45.44c.21.11.49.11 1.05.11h14.8c.56 0 .84 0 1.05-.1a1 1 0 0 0 .44-.45c.11-.21.11-.49.11-1.05v-.8c0-.56 0-.84-.1-1.05a1 1 0 0 0-.45-.44c-.21-.11-.49-.11-1.05-.11H4.6c-.56 0-.84 0-1.05.1a1 1 0 0 0-.44.45C3 17.76 3 18.04 3 18.6m8.65-15.52-7.4 1.64c-.44.1-.67.15-.83.27a1 1 0 0 0-.34.42C3 5.6 3 5.83 3 6.28V7.4c0 .56 0 .84.1 1.05a1 1 0 0 0 .45.44C3.76 9 4.04 9 4.6 9h14.8c.56 0 .84 0 1.05-.1a1 1 0 0 0 .44-.45c.11-.21.11-.49.11-1.05V6.28c0-.45 0-.68-.08-.87a1 1 0 0 0-.34-.42 2 2 0 0 0-.83-.27l-7.4-1.64q-.18-.05-.26-.05h-.18q-.08 0-.26.05"/></svg>