<svg xmlns="http://www.w3.org/2000/svg" fill="none" viewBox="0 0 24 24"><path fill="currentColor" d="M15 4a1 1 0 1 0 0-2zm-3 .5h-1zM8.5 7v1h7V6h-7zm7 0v1a5.5 5.5 0 0 1 5.5 5.5h2A7.5 7.5 0 0 0 15.5 6zm6.5 6.5h-1a5.5 5.5 0 0 1-5.5 5.5v2a7.5 7.5 0 0 0 7.5-7.5zM15.5 20v-1h-7v2h7zm-7 0v-1A5.5 5.5 0 0 1 3 13.5H1A7.5 7.5 0 0 0 8.5 21zM2 13.5h1A5.5 5.5 0 0 1 8.5 8V6A7.5 7.5 0 0 0 1 13.5zm14 0h-1c0 1.64-.411 3.078-1.023 4.072C13.355 18.582 12.627 19 12 19v2c1.581 0 2.854-1.038 3.68-2.38.836-1.358 1.32-3.17 1.32-5.12zM12 20v-1c-.628 0-1.355-.417-1.977-1.428C9.411 16.578 9 15.14 9 13.5H7c0 1.95.484 3.762 1.32 5.12C9.146 19.962 10.419 21 12 21zm-4-6.5h1c0-1.64.411-3.078 1.023-4.072C10.645 8.418 11.373 8 12 8V6c-1.581 0-2.854 1.038-3.68 2.38C7.484 9.738 7 11.55 7 13.5zM12 7v1c.628 0 1.355.417 1.977 1.428C14.589 10.422 15 11.86 15 13.5h2c0-1.95-.484-3.762-1.32-5.12C14.854 7.038 13.581 6 12 6zm3-4V2h-1.5v2H15zm-1.5 0V2a2.5 2.5 0 0 0-1.768.732l.707.707.707.707A.5.5 0 0 1 13.5 4zm-1.06.44-.708-.708A2.5 2.5 0 0 0 11 4.5h2a.5.5 0 0 1 .146-.354zM12 4.5h-1V7h2V4.5z"/></svg>