<svg xmlns="http://www.w3.org/2000/svg" fill="none" viewBox="0 0 24 24"><path stroke="currentColor" stroke-linecap="round" stroke-linejoin="round" stroke-width="2" d="M8.25 8.25h.005m6.995 7h.005m6.995-9h.005m-4.005-4h.005m-10.005 13h.005m7.995-9h.005m-3.527-2.312a2 2 0 0 1-1.192-.574 2 2 0 0 1-.583-1.31C5.923 2.578 2 6.831 2 12c0 5.523 4.477 10 10 10 5.404 0 9.806-4.286 9.994-9.644a2 2 0 0 1-2.546-1.7 5.002 5.002 0 0 1-6.72-6.718M8.5 8.25a.25.25 0 1 1-.5 0 .25.25 0 0 1 .5 0m7 7a.25.25 0 1 1-.5 0 .25.25 0 0 1 .5 0m7-9a.25.25 0 1 1-.5 0 .25.25 0 0 1 .5 0m-4-4a.25.25 0 1 1-.5 0 .25.25 0 0 1 .5 0m-10 13a.25.25 0 1 1-.5 0 .25.25 0 0 1 .5 0m8-9a.25.25 0 1 1-.5 0 .25.25 0 0 1 .5 0"/></svg>