<svg xmlns="http://www.w3.org/2000/svg" fill="none" viewBox="0 0 24 24"><path fill="currentColor" d="M19.88 7a1 1 0 1 0 0-2zM4 5a1 1 0 0 0 0 2zm8.925 8a1 1 0 1 0 0-2zM4 11a1 1 0 1 0 0 2zm15.88 8a1 1 0 1 0 0-2zM4 17a1 1 0 1 0 0 2zm15.414-1.947a1 1 0 0 0 1.172-1.62l-.586.81zM16.902 12l-.542-.84a1 1 0 0 0-.044 1.65zm3.64-1.16a1 1 0 1 0-1.084-1.68L20 10zM19.88 6V5H4v2h15.88zm-6.955 6v-1H4v2h8.925zm6.955 6v-1H4v2h15.88zm.12-3.757.586-.81-3.097-2.243-.587.81-.586.81 3.098 2.243zM16.902 12l.543.84 3.097-2L20 10l-.542-.84-3.098 2z"/></svg>