<svg xmlns="http://www.w3.org/2000/svg" fill="none" viewBox="0 0 24 24"><path stroke="currentColor" stroke-linecap="round" stroke-linejoin="round" stroke-width="2" d="m13.74 2.63 7.53 4.9c.27.17.4.26.5.37a1 1 0 0 1 .19.35c.04.14.04.3.04.62v7.33c0 1.68 0 2.52-.33 3.16a3 3 0 0 1-1.3 1.31c-.65.33-1.49.33-3.17.33H6.8c-1.68 0-2.52 0-3.16-.33a3 3 0 0 1-1.31-1.3C2 18.71 2 17.87 2 16.2V8.87c0-.32 0-.48.04-.62a1 1 0 0 1 .2-.35c.09-.11.22-.2.49-.37l7.53-4.9m3.48 0c-.63-.4-.94-.61-1.28-.7a2 2 0 0 0-.92 0c-.34.09-.65.3-1.28.7m3.48 0 6.2 4.03c.68.45 1.03.67 1.15.95a1 1 0 0 1 0 .78c-.12.28-.47.5-1.15.95l-6.2 4.03c-.63.4-.94.61-1.28.7a2 2 0 0 1-.92 0c-.34-.09-.65-.3-1.28-.7l-6.2-4.03c-.68-.45-1.03-.67-1.15-.95a1 1 0 0 1 0-.78c.12-.28.47-.5 1.15-.95l6.2-4.03M21.5 19l-6.64-6m-5.72 0L2.5 19"/></svg>