<svg xmlns="http://www.w3.org/2000/svg" fill="none" viewBox="0 0 24 24"><path stroke="currentColor" stroke-linecap="round" stroke-linejoin="round" stroke-width="2" d="M15.75 15.75h.008m4.492 4.5h.008M21 15l-6 6m1.125-5.25a.375.375 0 1 1-.75 0 .375.375 0 0 1 .75 0m4.5 4.5a.375.375 0 1 1-.75 0 .375.375 0 0 1 .75 0M3 20h1.675c.489 0 .733 0 .963-.055q.309-.075.579-.24c.201-.123.374-.296.72-.642L19.5 6.5a2.121 2.121 0 1 0-3-3L3.937 16.063c-.346.346-.519.519-.642.72a2 2 0 0 0-.24.578c-.055.23-.055.475-.055.965z"/></svg>