<svg xmlns="http://www.w3.org/2000/svg" fill="none" viewBox="0 0 24 24"><path stroke="currentColor" stroke-linecap="round" stroke-linejoin="round" stroke-width="2" d="M14.727 16.444V20m0 0H9.273m5.454 0h.91m-6.364 0v-3.556m0 3.556h-.91m-2.545-3.556h12.364c1.018 0 2.436 0 2.825-.193.342-.17.62-.443.795-.777.198-.38.198-.878.198-1.874V6.844c0-.995 0-1.493-.198-1.873a1.8 1.8 0 0 0-.795-.777C20.618 4 19.2 4 18.182 4H5.818C4.8 4 3.382 4 2.993 4.194c-.342.17-.62.442-.795.777C2 5.35 2 5.849 2 6.844V13.6c0 .996 0 1.494.198 1.874.174.334.453.606.795.777.389.193 1.807.193 2.825.193"/></svg>