<svg xmlns="http://www.w3.org/2000/svg" fill="none" viewBox="0 0 24 24"><path stroke="currentColor" stroke-linecap="round" stroke-linejoin="round" stroke-width="2" d="M17 2a5 5 0 0 1 5 5m-5-2a2 2 0 0 1 2 2m-8.884 8.635v-5.238c0-.444.27-.844.683-1.008L14.6 7.87a1.085 1.085 0 0 1 1.489 1.008v5.672M11.5 3H6.222A4.22 4.22 0 0 0 2 7.222v9.5A5.28 5.28 0 0 0 7.278 22h9.5A4.22 4.22 0 0 0 21 17.778V12.5M9.64 14.482a1.63 1.63 0 1 1-2.307 2.304 1.63 1.63 0 0 1 2.306-2.304m5.972-1.085a1.63 1.63 0 1 1-2.307 2.304 1.63 1.63 0 0 1 2.307-2.304"/></svg>