<svg xmlns="http://www.w3.org/2000/svg" fill="none" viewBox="0 0 24 24"><path stroke="currentColor" stroke-linecap="round" stroke-linejoin="round" stroke-width="2" d="m12 4-4.85 7.714a.8.8 0 0 0-.112.212.3.3 0 0 0 0 .148.8.8 0 0 0 .112.212L12 20M6.97 4l-4.85 7.714a.8.8 0 0 0-.111.212.3.3 0 0 0 0 .148.8.8 0 0 0 .112.212L6.97 20M17.03 4l4.85 7.714a.8.8 0 0 1 .111.212.3.3 0 0 1 0 .148.8.8 0 0 1-.112.212L17.03 20l-4.85-7.714c-.065-.105-.098-.157-.111-.212a.3.3 0 0 1 0-.148c.013-.055.046-.107.112-.212z"/></svg>