<svg xmlns="http://www.w3.org/2000/svg" fill="none" viewBox="0 0 24 24"><path stroke="currentColor" stroke-linecap="round" stroke-linejoin="round" stroke-width="2" d="M3.224 10A9 9 0 0 1 4 7.872m3.76-3.814A9 9 0 0 1 10 3.224m3.999 0a9 9 0 0 1 2.193.81m3.781 3.788c.365.695.632 1.428.802 2.178M3.224 14A9 9 0 0 0 4 16.128m3.761 3.814c.713.38 1.467.659 2.24.834m3.999 0a9 9 0 0 0 2.193-.81m3.781-3.788A9 9 0 0 0 20.776 14M7.268 3.732a2.5 2.5 0 1 1-3.536 3.536 2.5 2.5 0 0 1 3.536-3.536m13 0a2.5 2.5 0 1 1-3.536 3.536 2.5 2.5 0 0 1 3.536-3.536m-13 16.536a2.5 2.5 0 1 0-3.536-3.536 2.5 2.5 0 0 0 3.536 3.536m13 0a2.5 2.5 0 1 0-3.536-3.536 2.5 2.5 0 0 0 3.536 3.536"/></svg>