<svg xmlns="http://www.w3.org/2000/svg" fill="none" viewBox="0 0 24 24"><path fill="currentColor" d="M11.2 23a1 1 0 1 0 0-2zM19 11.2a1 1 0 1 0 2 0zm.673-7.562.891-.454zm-1.311-1.311-.454.891zM5.638 21.673l-.454.891zm-1.311-1.311-.891.454zm0-16.724-.891-.454zm1.311-1.311-.454-.891zM14 12a1 1 0 1 0 0-2zm-6-2a1 1 0 1 0 0 2zm2 6a1 1 0 1 0 0-2zm-2-2a1 1 0 1 0 0 2zm8-6a1 1 0 1 0 0-2zM8 6a1 1 0 0 0 0 2zm12.293 16.707a1 1 0 0 0 1.414-1.414L21 22zm-.486-3.314a1 1 0 0 0-1.414 1.414l.707-.707zM11.2 22v-1H8.8v2h2.4zM4 17.2h1V6.8H3v10.4zM20 6.8h-1v4.4h2V6.8zM8.8 2v1h6.4V1H8.8zM20 6.8h1c0-.824 0-1.501-.044-2.052-.046-.562-.145-1.079-.392-1.564l-.891.454-.891.454c.08.156.145.38.18.819C19 5.361 19 5.943 19 6.8zM15.2 2v1c.857 0 1.439 0 1.889.038.438.035.663.1.819.18l.454-.891.454-.891c-.485-.247-1.002-.346-1.564-.392C16.702 1 16.024 1 15.2 1zm4.473 1.638.891-.454a4 4 0 0 0-1.748-1.748l-.454.891-.454.891a2 2 0 0 1 .874.874zM8.8 22v-1c-.857 0-1.439 0-1.889-.038-.438-.035-.663-.1-.819-.18l-.454.891-.454.891c.485.247 1.002.346 1.564.392C7.298 23 7.976 23 8.8 23zM4 17.2H3c0 .824 0 1.501.044 2.052.046.562.145 1.079.392 1.564l.891-.454.891-.454c-.08-.156-.145-.38-.18-.819C5 18.639 5 18.057 5 17.2zm1.638 4.473.454-.891a2 2 0 0 1-.874-.874l-.891.454-.891.454a4 4 0 0 0 1.748 1.748zM4 6.8h1c0-.857 0-1.439.038-1.889.035-.438.1-.663.18-.819l-.891-.454-.891-.454c-.247.485-.346 1.002-.392 1.564C3 5.298 3 5.976 3 6.8zM8.8 2V1c-.824 0-1.501 0-2.052.044-.562.046-1.079.145-1.564.392l.454.891.454.891c.156-.08.38-.145.819-.18C7.361 3 7.943 3 8.8 3zM4.327 3.638l.891.454a2 2 0 0 1 .874-.874l-.454-.891-.454-.891a4 4 0 0 0-1.748 1.748zM14 11v-1H8v2h6zm-4 4v-1H8v2h2zm6-8V6H8v2h8zm5 15 .707-.707-1.9-1.9-.707.707-.707.707 1.9 1.9zm-1-4h-1a2 2 0 0 1-2 2v2a4 4 0 0 0 4-4zm-3 3v-1a2 2 0 0 1-2-2h-2a4 4 0 0 0 4 4zm-3-3h1a2 2 0 0 1 2-2v-2a4 4 0 0 0-4 4zm3-3v1a2 2 0 0 1 2 2h2a4 4 0 0 0-4-4z"/></svg>